<svg width="300" height="77" viewBox="0 0 300 77" fill="none" xmlns="http://www.w3.org/2000/svg">
<path fill-rule="evenodd" clip-rule="evenodd" d="M39.6623 0.000373725C40.4579 0.0131527 41.2159 0.353068 41.7698 0.945342L76.8869 38.5004C77.453 39.1057 77.7577 39.9234 77.7314 40.7661C77.7051 41.6088 77.3499 42.4043 76.7472 42.9705L76.6029 43.1064C76.5065 43.1973 76.363 43.3329 76.1761 43.51C75.8022 43.8641 75.255 44.3843 74.564 45.0455C73.1818 46.3682 71.2255 48.2547 68.9323 50.5064C64.3411 55.0144 58.4204 60.9664 53.0585 66.7807C50.2823 69.7911 47.7926 72.1204 45.5087 73.7815C43.2362 75.4344 41.0106 76.5417 38.7791 76.8849C33.8814 77.6379 30.4608 74.5895 27.814 70.8807C26.9199 69.6278 27.0582 67.8823 28.1374 66.7975L54.5098 40.2892L49.2164 34.6283L22.8441 61.1366C22.2728 61.7108 21.5049 62.0262 20.7094 62.0135C19.9138 62.0007 19.1558 61.6608 18.6019 61.0685L9.9213 51.7852C8.76802 50.5519 8.79745 48.5827 9.98703 47.387L38.5133 18.7137C39.7029 17.518 41.6022 17.5485 42.7554 18.7818C43.9087 20.0152 43.8793 21.9843 42.6897 23.1801L16.3174 49.6883L20.8216 54.5053L47.1939 27.997C47.7652 27.4228 48.5331 27.1074 49.3286 27.1201C50.1242 27.1329 50.8823 27.4728 51.4361 28.0651L60.9059 38.1923C62.0591 39.4257 62.0297 41.3948 60.8401 42.5905L34.3314 69.2359C35.7138 70.6181 36.8058 70.8995 37.8989 70.7314C38.8679 70.5824 40.2126 70.0348 42.0629 68.689C43.9018 67.3514 46.0874 65.3383 48.7217 62.4817C54.1809 56.5619 60.1815 50.531 64.8065 45.9897C67.0871 43.7504 69.0382 41.8684 70.4319 40.5342L39.5501 7.50857L5.08821 42.1481C3.89863 43.3438 1.99936 43.3133 0.846075 42.08C-0.307209 40.8466 -0.277783 38.8775 0.911799 37.6818L37.5276 0.8772C38.0989 0.302999 38.8668 -0.0124055 39.6623 0.000373725Z" fill="white"/>
<path d="M119.028 28.8409H128.46C128.324 20.5455 121.506 14.8182 111.142 14.8182C100.938 14.8182 93.4602 20.4545 93.5057 28.9091C93.483 35.7727 98.3239 39.7045 106.188 41.5909L111.256 42.8636C116.324 44.0909 119.142 45.5455 119.165 48.6818C119.142 52.0909 115.915 54.4091 110.915 54.4091C105.801 54.4091 102.119 52.0455 101.801 47.3864H92.2784C92.5284 57.4545 99.733 62.6591 111.028 62.6591C122.392 62.6591 129.074 57.2273 129.097 48.7045C129.074 40.9545 123.233 36.8409 115.142 35.0227L110.96 34.0227C106.915 33.0909 103.528 31.5909 103.597 28.25C103.597 25.25 106.256 23.0455 111.074 23.0455C115.778 23.0455 118.665 25.1818 119.028 28.8409ZM150.902 27.0909H144.334V18.7273H134.652V27.0909H129.88V34.3636H134.652V52.5455C134.607 59.3864 139.266 62.7727 146.289 62.4773C148.789 62.3864 150.561 61.8864 151.539 61.5682L150.016 54.3636C149.539 54.4545 148.516 54.6818 147.607 54.6818C145.675 54.6818 144.334 53.9545 144.334 51.2727V34.3636H150.902V27.0909ZM154.009 62H163.691V42.25C163.691 37.9545 166.827 35 171.1 35C172.441 35 174.282 35.2273 175.191 35.5227V26.9318C174.327 26.7273 173.123 26.5909 172.145 26.5909C168.236 26.5909 165.032 28.8636 163.759 33.1818H163.395V27.0909H154.009V62ZM176.997 62H186.678V27.0909H176.997V62ZM181.86 22.5909C184.747 22.5909 187.11 20.3864 187.11 17.6818C187.11 15 184.747 12.7955 181.86 12.7955C178.997 12.7955 176.633 15 176.633 17.6818C176.633 20.3864 178.997 22.5909 181.86 22.5909ZM200.916 41.8182C200.939 37.3182 203.62 34.6818 207.53 34.6818C211.416 34.6818 213.757 37.2273 213.734 41.5V62H223.416V39.7727C223.416 31.6364 218.643 26.6364 211.37 26.6364C206.189 26.6364 202.439 29.1818 200.87 33.25H200.461V27.0909H191.234V62H200.916V41.8182ZM243.574 75.8182C253.551 75.8182 260.642 71.2727 260.642 62.3409V27.0909H251.028V32.9545H250.665C249.369 30.1136 246.528 26.6364 240.688 26.6364C233.028 26.6364 226.551 32.5909 226.551 44.4773C226.551 56.0909 232.847 61.5 240.71 61.5C246.278 61.5 249.392 58.7045 250.665 55.8182H251.074V62.2045C251.074 67 248.006 68.8636 243.801 68.8636C239.528 68.8636 237.369 67 236.574 64.8864L227.619 66.0909C228.778 71.5909 234.165 75.8182 243.574 75.8182ZM243.778 54.2273C239.028 54.2273 236.438 50.4545 236.438 44.4318C236.438 38.5 238.983 34.3409 243.778 34.3409C248.483 34.3409 251.119 38.3182 251.119 44.4318C251.119 50.5909 248.438 54.2273 243.778 54.2273ZM271.124 75.0909C278.328 75.0909 282.147 71.4091 284.124 65.7727L297.692 27.1364L287.442 27.0909L280.147 52.7273H279.783L272.556 27.0909H262.374L274.897 63L274.328 64.4773C273.056 67.75 270.624 67.9091 267.215 66.8636L265.033 74.0909C266.419 74.6818 268.669 75.0909 271.124 75.0909Z" fill="white"/>
</svg>
