<svg width="1681" height="321" viewBox="0 0 1681 321" fill="none" xmlns="http://www.w3.org/2000/svg">
<path d="M269.651 168.608C268.345 171.253 266.625 173.644 264.558 175.74L200.613 241.279C197.671 244.295 194.94 248.507 190.727 248.507V248.507V248.507C186.366 248.507 183.584 244.068 180.537 240.948L116.869 175.727C116.536 175.407 116.176 175.019 115.842 174.632C108.695 166.605 107.322 155.011 112.362 145.127L184.5 3.52115C185.9 1.34404 188.193 0.115234 190.727 0.115234C193.26 0.115234 195.54 1.33068 196.874 3.37423L233.029 74.3576L269.185 145.341C272.985 152.781 273.158 161.489 269.651 168.608ZM192.914 291.355L12.796 107.903L12.2227 107.315C10.8893 106.246 9.35583 105.699 7.7024 105.699C5.28892 105.792 3.16879 106.847 1.86204 108.584C0.635304 110.213 0.275283 112.324 0.835316 114.568L53.2518 295.268C54.5052 299.582 56.532 303.589 59.3188 307.142C59.6522 307.596 60.0255 308.037 60.3856 308.465C66.6126 315.69 75.9998 319.657 85.7338 319.657C89.5073 319.657 93.3342 319.07 97.0411 317.814C124.029 308.865 152.284 303.843 181.086 302.922C183.526 302.735 185.953 302.588 188.367 302.467C190.367 302.361 192.22 301.399 193.42 299.836C194.607 298.314 195.06 296.39 194.7 294.534C194.474 293.425 193.874 292.357 192.927 291.368L192.914 291.355ZM377.698 106.82C377.698 106.826 377.691 106.83 377.687 106.826C375.408 105.272 372.506 105.368 369.471 107.181V107.181C368.975 107.483 368.519 107.845 368.112 108.26L213.848 265.657C211.275 268.275 211.261 272.388 213.821 275.006L240.81 302.654C244.01 305.94 248.117 308.184 252.717 309.159C264.958 311.737 277.105 315.129 288.839 319.23C291.559 320.178 294.4 320.646 297.253 320.646C300.787 320.646 304.32 319.924 307.694 318.482C313.507 316.104 318.534 312.351 322.228 307.61C324.988 304.07 327.042 300.063 328.308 295.709L380.738 114.928C380.952 114.087 381.032 113.245 380.965 112.524C380.965 110.231 379.743 108.097 377.709 106.814C377.704 106.811 377.698 106.815 377.698 106.82V106.82Z" fill="white"/>
<path fill-rule="evenodd" clip-rule="evenodd" d="M1091.28 210.849C1100.38 225.781 1112.87 237.482 1128.8 245.936C1144.74 254.391 1162.65 258.612 1182.63 258.612C1202.61 258.612 1220.56 254.391 1236.5 245.936C1252.39 237.482 1264.92 225.768 1274.01 210.849C1283.1 195.903 1287.62 179.074 1287.62 160.374C1287.62 141.675 1283.11 124.833 1274.01 109.913C1264.92 94.9674 1252.39 83.2804 1236.5 74.8258C1220.56 66.3711 1202.61 62.1504 1182.63 62.1504C1162.65 62.1504 1144.74 66.3711 1128.8 74.8258C1112.87 83.2804 1100.38 94.9674 1091.28 109.913C1082.2 124.846 1077.67 141.662 1077.67 160.374C1077.67 179.087 1082.19 195.903 1091.28 210.849ZM1226.92 188.583C1222.39 196.771 1216.3 203.115 1208.55 207.617C1200.81 212.104 1192.17 214.348 1182.63 214.348C1173.09 214.348 1164.45 212.104 1156.74 207.617C1149 203.115 1142.87 196.771 1138.38 188.583C1133.89 180.409 1131.65 170.98 1131.65 160.374C1131.65 149.769 1133.89 140.353 1138.38 132.165C1142.87 123.991 1149 117.647 1156.74 113.146C1164.45 108.658 1173.09 106.401 1182.63 106.401C1192.17 106.401 1200.81 108.658 1208.55 113.146C1216.3 117.647 1222.39 123.991 1226.92 132.165C1231.41 140.366 1233.65 149.743 1233.65 160.374C1233.65 171.006 1231.41 180.409 1226.92 188.583ZM962.651 204.614H941.761C939.544 204.614 937.741 206.418 937.741 208.635V250.775C937.741 252.992 935.938 254.795 933.721 254.795H888.362C886.145 254.795 884.341 252.992 884.341 250.775V69.9271C884.341 67.7099 886.145 65.9068 888.362 65.9068H970.705C987.801 65.9068 1002.61 68.725 1015.22 74.4015C1027.83 80.0647 1037.55 88.1721 1044.37 98.6971C1051.2 109.222 1054.65 121.59 1054.65 135.802C1054.65 150.013 1051.43 161.406 1045.07 171.557C1039.17 180.933 1030.96 188.44 1020.38 194.063C1018.95 194.824 1018.45 196.627 1019.38 197.963L1055.53 250.628C1056.76 252.404 1055.48 254.835 1053.32 254.835H1005.43C1002.77 254.835 1000.28 253.526 998.78 251.322L969.316 208.154C967.82 205.95 965.322 204.641 962.664 204.641L962.651 204.614ZM992.262 115.273C986.693 110.424 978.385 107.993 967.419 107.993H941.748C939.531 107.993 937.728 109.796 937.728 112.014V159.282C937.728 161.5 939.531 163.303 941.748 163.303H967.419C978.385 163.303 986.679 160.925 992.262 156.157C997.832 151.389 1000.64 144.604 1000.64 135.775C1000.64 126.946 997.832 120.121 992.262 115.259V115.273ZM478.069 108.291H528.036L528.049 108.304C530.267 108.304 532.07 110.107 532.07 112.324V250.805C532.07 253.022 533.873 254.825 536.09 254.825H581.489C583.706 254.825 585.509 253.022 585.509 250.805V112.311C585.509 110.094 587.312 108.291 589.53 108.291H639.229C641.446 108.291 643.25 106.488 643.25 104.27V69.9574C643.25 67.7402 641.446 65.9371 639.229 65.9371H478.069C475.852 65.9371 474.049 67.7402 474.049 69.9574V104.27C474.049 106.488 475.852 108.291 478.069 108.291ZM846.016 250.818V69.9574C846.016 67.7402 844.213 65.9371 841.996 65.9371H796.597C794.379 65.9371 792.576 67.7402 792.576 69.9574V132.88C792.576 135.097 790.773 136.9 788.556 136.9H723.75C721.533 136.9 719.73 135.097 719.73 132.88V69.9574C719.73 67.7402 717.927 65.9371 715.709 65.9371H670.31C668.093 65.9371 666.29 67.7402 666.29 69.9574V250.818C666.29 253.036 668.093 254.839 670.31 254.839H715.709C717.927 254.839 719.73 253.036 719.73 250.818V185.184C719.73 182.967 721.533 181.164 723.75 181.164H788.556C790.773 181.164 792.576 182.967 792.576 185.184V250.818C792.576 253.036 794.379 254.839 796.597 254.839H841.996C844.213 254.839 846.016 253.036 846.016 250.818ZM1490.35 69.9574V250.818C1490.35 253.036 1488.55 254.839 1486.33 254.839H1448.26C1447.06 254.839 1445.93 254.304 1445.17 253.383L1366.52 158.471C1365.32 157.015 1362.96 157.87 1362.96 159.753V250.818C1362.96 253.036 1361.15 254.839 1358.94 254.839H1314.62C1312.4 254.839 1310.6 253.036 1310.6 250.818V69.9574C1310.6 67.7402 1312.4 65.9371 1314.62 65.9371H1352.69C1353.89 65.9371 1355.02 66.4713 1355.78 67.3929L1434.43 162.291C1435.63 163.747 1437.99 162.892 1437.99 161.009V69.9574C1437.99 67.7402 1439.8 65.9371 1442.01 65.9371H1486.33C1488.55 65.9371 1490.35 67.7402 1490.35 69.9574ZM1680.59 250.788V217.544V217.49C1680.59 215.273 1678.78 213.47 1676.57 213.47H1585.83C1583.62 213.47 1581.81 211.667 1581.81 209.45V182.964C1581.81 180.746 1583.62 178.943 1585.83 178.943H1661.71C1663.93 178.943 1665.73 177.14 1665.73 174.923V143.027C1665.73 140.81 1663.93 139.007 1661.71 139.007H1585.83C1583.62 139.007 1581.81 137.204 1581.81 134.987V111.185C1581.81 108.968 1583.62 107.165 1585.83 107.165H1673.05C1675.27 107.165 1677.07 105.362 1677.07 103.145V69.9271C1677.07 67.7099 1675.27 65.9068 1673.05 65.9068H1532.94C1530.73 65.9068 1528.92 67.7099 1528.92 69.9271V250.788C1528.92 253.005 1530.73 254.808 1532.94 254.808H1676.57C1678.78 254.808 1680.59 253.005 1680.59 250.788Z" fill="white"/>
</svg>
