<?xml version="1.0" encoding="UTF-8" standalone="no"?>
<svg xmlns="http://www.w3.org/2000/svg" xml:space="preserve" fill-rule="evenodd" stroke-linecap="round" stroke-linejoin="round" clip-rule="evenodd" viewBox="0 0 792 612">
  <defs>
    <linearGradient id="a" x1="1.6406" x2="790.541" y1="306.056" y2="306.056" gradientUnits="userSpaceOnUse">
      <stop offset="0" stop-color="red"/>
      <stop offset=".2025" stop-color="#ff7800"/>
      <stop offset=".411" stop-color="#ff0"/>
      <stop offset=".6258" stop-color="#0f0"/>
      <stop offset=".7914" stop-color="#00f"/>
      <stop offset=".8096" stop-color="#2100ff"/>
      <stop offset=".8499" stop-color="#6300ff"/>
      <stop offset=".8882" stop-color="#9b00ff"/>
      <stop offset=".9234" stop-color="#c600ff"/>
      <stop offset=".9548" stop-color="#e500ff"/>
      <stop offset=".9815" stop-color="#f800ff"/>
      <stop offset="1" stop-color="#f0f"/>
    </linearGradient>
  </defs>
  <path fill="url(#a)" stroke="#000" stroke-linecap="butt" stroke-linejoin="miter" stroke-width="3.56" d="M409.676 236.807c26.988-55.399 56.553-96.948 88.691-124.647 32.138-27.7 66.852-41.55 104.139-41.55 52.557 0 97.034 21.929 133.437 65.786 36.398 43.858 54.599 97.215 54.599 160.071 0 68.184-19.71 127.045-59.129 176.585-17.271 21.706-35.974 38.657-56.109 50.852-25.818 15.638-53.99 23.457-84.516 23.457-32.67 0-66.409-14.294-101.209-42.88-34.802-28.588-70.492-71.646-107.07-129.176-27.344 55.398-57.085 96.948-89.225 124.646-32.137 27.7-66.674 41.551-103.606 41.551-52.204 0-96.594-21.929-133.171-65.787-36.578-43.857-54.866-97.214-54.866-160.071 0-68.183 19.709-127.044 59.127-176.583 39.419-49.54 86.295-74.31 140.629-74.31 32.315 0 65.875 14.382 100.677 43.147 34.801 28.765 70.669 71.734 107.602 128.909Zm-61.259 92.154-12.252-17.047c-41.193-55.753-71.734-92.775-91.621-111.063-19.887-18.289-39.595-27.434-59.128-27.434-28.41 0-52.646 14.738-72.71 44.213-20.065 29.476-30.097 65.342-30.097 107.602 0 40.129 11.008 73.599 33.026 100.41 22.018 26.811 49.54 40.218 82.566 40.218 24.858 0 49.806-11.364 74.841-34.091 25.037-22.728 50.161-56.998 75.375-102.808Zm95.35-45.811 12.785 17.046c33.735 46.166 63.122 80.789 88.157 103.874 25.036 23.081 45.724 34.624 62.059 34.624 28.763 0 53.089-14.739 72.976-44.213 19.887-29.476 29.831-65.344 29.831-107.602 0-40.129-11.009-73.599-33.026-100.412-22.02-26.811-49.539-40.217-82.564-40.217-25.213 0-50.339 11.452-75.375 34.358-25.037 22.906-49.985 57.087-74.843 102.542Z"/>
</svg>