<?xml version="1.0" standalone="no"?>
<svg viewBox="0 0 200 200" xmlns="http://www.w3.org/2000/svg">
  <defs>
      <linearGradient id="grad" x1="0%" y1="0%" x2="100%" y2="0%">
          <stop offset="0%" style="stop-color:rgb(190, 80, 241);stop-opacity:1" />
          <stop offset="100%" style="stop-color:rgb(65, 167, 226);stop-opacity:1" />
      </linearGradient>
  </defs>
  <path fill="url(#grad)" d="M31.1,-43.6C43.8,-33.5,60.1,-29.2,71.1,-17.8C82.2,-6.4,88,12.1,80.4,23.2C72.8,34.3,51.6,38.2,36,47.9C20.3,57.7,10.2,73.3,-4.2,79.1C-18.5,84.8,-37,80.6,-52.5,70.8C-67.9,61,-80.4,45.6,-86.2,28C-91.9,10.4,-91,-9.4,-81.1,-22.3C-71.3,-35.1,-52.6,-40.9,-37.6,-50.2C-22.6,-59.4,-11.3,-72.2,-1.1,-70.7C9.2,-69.2,18.4,-53.6,31.1,-43.6Z" transform="translate(100 100)" />
</svg>
