<?xml version="1.0" standalone="no"?>
<svg viewBox="0 0 200 200" xmlns="http://www.w3.org/2000/svg">
  <defs>
      <linearGradient id="grad" x1="0%" y1="0%" x2="100%" y2="0%">
          <stop offset="0%" style="stop-color:rgb(190, 80, 241);stop-opacity:1" />
          <stop offset="100%" style="stop-color:rgb(65, 167, 226);stop-opacity:1" />
      </linearGradient>
  </defs>
  <path fill="url(#grad)" d="M34.5,-56.7C40.2,-50,37.4,-32.9,38.6,-20.5C39.9,-8.1,45.4,-0.4,48.8,10.2C52.2,20.7,53.6,34.2,49.5,48C45.5,61.9,36,76.2,24.4,76.7C12.7,77.3,-1.1,64.1,-15.1,57.3C-29.1,50.5,-43.3,50.2,-53.9,43.6C-64.5,37,-71.5,24.1,-71,11.7C-70.5,-0.8,-62.5,-12.8,-53,-20.3C-43.6,-27.8,-32.6,-30.8,-23.5,-36C-14.4,-41.2,-7.2,-48.7,3.6,-54.3C14.4,-59.9,28.8,-63.5,34.5,-56.7Z" transform="translate(100 100)" />
</svg>
