<?xml version="1.0" standalone="no"?>
    <svg xmlns="http://www.w3.org/2000/svg" viewBox="0 0 1440 320">
        <defs>
            <linearGradient id="grad" x1="0%" y1="0%" x2="100%" y2="0%">
                <stop offset="0%" style="stop-color:rgb(190, 80, 241);stop-opacity:1" />
                <stop offset="100%" style="stop-color:rgb(65, 167, 226);stop-opacity:1" />
            </linearGradient>
        </defs>
        <path fill="url(#grad)" fill-opacity="1" d="M0,32L24,74.7C48,117,96,203,144,224C192,245,240,203,288,170.7C336,139,384,117,432,101.3C480,85,528,75,576,96C624,117,672,171,720,192C768,213,816,203,864,186.7C912,171,960,149,1008,144C1056,139,1104,149,1152,181.3C1200,213,1248,267,1296,282.7C1344,299,1392,277,1416,266.7L1440,256L1440,0L1416,0C1392,0,1344,0,1296,0C1248,0,1200,0,1152,0C1104,0,1056,0,1008,0C960,0,912,0,864,0C816,0,768,0,720,0C672,0,624,0,576,0C528,0,480,0,432,0C384,0,336,0,288,0C240,0,192,0,144,0C96,0,48,0,24,0L0,0Z"></path>
    </svg>