<svg xmlns="http://www.w3.org/2000/svg" viewBox="0 0 1440 320">
        <!-- <defs>
            <linearGradient id="grad" x1="0%" y1="0%" x2="100%" y2="0%">
                <stop offset="0%" style="stop-color:#8548f5;stop-opacity:1" />
                <stop offset="100%" style="stop-color:#fa93ff;stop-opacity:1" />
            </linearGradient>
        </defs> -->
    <path fill-opacity="1" d="M0,0L48,32C96,64,192,128,288,176C384,224,480,256,576,240C672,224,768,160,864,117.3C960,75,1056,53,1152,69.3C1248,85,1344,139,1392,165.3L1440,192L1440,0L1392,0C1344,0,1248,0,1152,0C1056,0,960,0,864,0C768,0,672,0,576,0C480,0,384,0,288,0C192,0,96,0,48,0L0,0Z"></path>
</svg>