<svg width="597" height="503" viewBox="0 0 597 503" fill="none" xmlns="http://www.w3.org/2000/svg">
<path d="M422.563 264.121C420.516 268.265 417.821 272.01 414.583 275.296L314.398 377.979C309.788 382.703 305.509 389.303 298.908 389.303V389.303V389.303C292.075 389.303 287.716 382.349 282.943 377.459L183.191 275.275C182.669 274.773 182.105 274.166 181.582 273.559C170.385 260.982 168.233 242.818 176.13 227.333L289.152 5.471C291.345 2.05999 294.938 0.134766 298.908 0.134766C302.877 0.134766 306.45 2.03907 308.539 5.24081L365.185 116.454L421.832 227.667C427.786 239.323 428.058 252.967 422.563 264.121ZM302.334 456.435L20.1346 169.011L19.2363 168.09C17.1472 166.416 14.7447 165.558 12.1541 165.558C8.37283 165.704 5.05112 167.358 3.00377 170.078C1.08177 172.631 0.517709 175.937 1.39514 179.453L83.5188 462.566C85.4825 469.325 88.658 475.603 93.0243 481.17C93.5466 481.881 94.1315 482.572 94.6956 483.241C104.452 494.563 119.159 500.778 134.41 500.778C140.322 500.778 146.318 499.857 152.126 497.89C194.41 483.869 238.678 476.001 283.803 474.557C287.627 474.264 291.429 474.034 295.21 473.845C298.344 473.678 301.248 472.171 303.128 469.723C304.987 467.337 305.698 464.324 305.133 461.415C304.778 459.678 303.838 458.004 302.355 456.456L302.334 456.435ZM591.845 167.315C591.845 167.324 591.835 167.33 591.828 167.324C588.258 164.889 583.711 165.039 578.955 167.881V167.881C578.179 168.353 577.464 168.921 576.827 169.57L335.133 416.172C331.101 420.274 331.08 426.719 335.092 430.821L377.375 474.138C382.389 479.286 388.824 482.802 396.031 484.33C415.21 488.368 434.242 493.684 452.626 500.108C456.888 501.594 461.338 502.326 465.808 502.326C471.344 502.326 476.881 501.196 482.166 498.936C491.275 495.211 499.151 489.331 504.938 481.902C509.262 476.357 512.479 470.079 514.464 463.257L596.609 180.018C596.943 178.7 597.068 177.381 596.964 176.251C596.964 172.658 595.049 169.316 591.863 167.306C591.855 167.301 591.845 167.306 591.845 167.315V167.315Z" fill="white"/>
</svg>
